<svg xmlns="http://www.w3.org/2000/svg" xmlns:xlink="http://www.w3.org/1999/xlink" width="100" zoomAndPan="magnify" viewBox="0 0 75 30.000001" height="40" preserveAspectRatio="xMidYMid meet" version="1.0"><defs><g/></defs><g fill="#000000" fill-opacity="1"><g transform="translate(4.55519, 19.959679)"><g><path d="M 12.5 -10.765625 L 12.5 0 L 10.734375 0 L 10.734375 -7.375 L 7.453125 0 L 6.21875 0 L 2.921875 -7.375 L 2.921875 0 L 1.15625 0 L 1.15625 -10.765625 L 3.0625 -10.765625 L 6.84375 -2.328125 L 10.609375 -10.765625 Z M 12.5 -10.765625 "/></g></g></g><g fill="#000000" fill-opacity="1"><g transform="translate(18.208682, 19.959679)"><g><path d="M 2.0625 -9.65625 C 1.738281 -9.65625 1.46875 -9.765625 1.25 -9.984375 C 1.03125 -10.203125 0.921875 -10.472656 0.921875 -10.796875 C 0.921875 -11.109375 1.03125 -11.375 1.25 -11.59375 C 1.46875 -11.8125 1.738281 -11.921875 2.0625 -11.921875 C 2.375 -11.921875 2.632812 -11.8125 2.84375 -11.59375 C 3.0625 -11.375 3.171875 -11.109375 3.171875 -10.796875 C 3.171875 -10.472656 3.0625 -10.203125 2.84375 -9.984375 C 2.632812 -9.765625 2.375 -9.65625 2.0625 -9.65625 Z M 2.921875 -8.53125 L 2.921875 0 L 1.15625 0 L 1.15625 -8.53125 Z M 2.921875 -8.53125 "/></g></g></g><g fill="#000000" fill-opacity="1"><g transform="translate(22.295441, 19.959679)"><g><path d="M 0.578125 -4.28125 C 0.578125 -5.15625 0.753906 -5.925781 1.109375 -6.59375 C 1.460938 -7.257812 1.953125 -7.769531 2.578125 -8.125 C 3.210938 -8.488281 3.9375 -8.671875 4.75 -8.671875 C 5.78125 -8.671875 6.632812 -8.425781 7.3125 -7.9375 C 7.988281 -7.445312 8.445312 -6.75 8.6875 -5.84375 L 6.78125 -5.84375 C 6.625 -6.257812 6.375 -6.585938 6.03125 -6.828125 C 5.695312 -7.066406 5.269531 -7.1875 4.75 -7.1875 C 4.03125 -7.1875 3.457031 -6.929688 3.03125 -6.421875 C 2.601562 -5.910156 2.390625 -5.195312 2.390625 -4.28125 C 2.390625 -3.351562 2.601562 -2.628906 3.03125 -2.109375 C 3.457031 -1.597656 4.03125 -1.34375 4.75 -1.34375 C 5.769531 -1.34375 6.445312 -1.789062 6.78125 -2.6875 L 8.6875 -2.6875 C 8.4375 -1.820312 7.96875 -1.132812 7.28125 -0.625 C 6.601562 -0.113281 5.757812 0.140625 4.75 0.140625 C 3.9375 0.140625 3.210938 -0.0390625 2.578125 -0.40625 C 1.953125 -0.769531 1.460938 -1.285156 1.109375 -1.953125 C 0.753906 -2.617188 0.578125 -3.394531 0.578125 -4.28125 Z M 0.578125 -4.28125 "/></g></g></g><g fill="#000000" fill-opacity="1"><g transform="translate(31.583529, 19.959679)"><g><path d="M 2.921875 -7.296875 C 3.179688 -7.722656 3.523438 -8.054688 3.953125 -8.296875 C 4.378906 -8.546875 4.890625 -8.671875 5.484375 -8.671875 L 5.484375 -6.84375 L 5.03125 -6.84375 C 4.34375 -6.84375 3.816406 -6.664062 3.453125 -6.3125 C 3.097656 -5.96875 2.921875 -5.359375 2.921875 -4.484375 L 2.921875 0 L 1.15625 0 L 1.15625 -8.53125 L 2.921875 -8.53125 Z M 2.921875 -7.296875 "/></g></g></g><g fill="#000000" fill-opacity="1"><g transform="translate(37.527908, 19.959679)"><g><path d="M 4.859375 0.140625 C 4.054688 0.140625 3.328125 -0.0390625 2.671875 -0.40625 C 2.023438 -0.769531 1.515625 -1.285156 1.140625 -1.953125 C 0.773438 -2.617188 0.59375 -3.394531 0.59375 -4.28125 C 0.59375 -5.144531 0.78125 -5.910156 1.15625 -6.578125 C 1.539062 -7.253906 2.0625 -7.769531 2.71875 -8.125 C 3.382812 -8.488281 4.125 -8.671875 4.9375 -8.671875 C 5.75 -8.671875 6.484375 -8.488281 7.140625 -8.125 C 7.804688 -7.769531 8.332031 -7.253906 8.71875 -6.578125 C 9.101562 -5.910156 9.296875 -5.144531 9.296875 -4.28125 C 9.296875 -3.40625 9.097656 -2.628906 8.703125 -1.953125 C 8.304688 -1.285156 7.769531 -0.769531 7.09375 -0.40625 C 6.414062 -0.0390625 5.671875 0.140625 4.859375 0.140625 Z M 4.859375 -1.390625 C 5.316406 -1.390625 5.742188 -1.5 6.140625 -1.71875 C 6.535156 -1.9375 6.859375 -2.257812 7.109375 -2.6875 C 7.359375 -3.125 7.484375 -3.65625 7.484375 -4.28125 C 7.484375 -4.894531 7.363281 -5.414062 7.125 -5.84375 C 6.882812 -6.269531 6.566406 -6.59375 6.171875 -6.8125 C 5.785156 -7.03125 5.363281 -7.140625 4.90625 -7.140625 C 4.457031 -7.140625 4.035156 -7.03125 3.640625 -6.8125 C 3.253906 -6.59375 2.945312 -6.269531 2.71875 -5.84375 C 2.5 -5.414062 2.390625 -4.894531 2.390625 -4.28125 C 2.390625 -3.351562 2.625 -2.640625 3.09375 -2.140625 C 3.5625 -1.640625 4.148438 -1.390625 4.859375 -1.390625 Z M 4.859375 -1.390625 "/></g></g></g><g fill="#000000" fill-opacity="1"><g transform="translate(47.40424, 19.959679)"><g><path d="M 2.921875 -10.765625 L 2.921875 0 L 1.15625 0 L 1.15625 -10.765625 Z M 2.921875 -10.765625 "/></g></g></g><g fill="#000000" fill-opacity="1"><g transform="translate(51.490999, 19.959679)"><g><path d="M 5.46875 -8.671875 C 6.132812 -8.671875 6.734375 -8.53125 7.265625 -8.25 C 7.796875 -7.96875 8.210938 -7.550781 8.515625 -7 C 8.816406 -6.457031 8.96875 -5.800781 8.96875 -5.03125 L 8.96875 0 L 7.21875 0 L 7.21875 -4.765625 C 7.21875 -5.535156 7.023438 -6.125 6.640625 -6.53125 C 6.253906 -6.9375 5.734375 -7.140625 5.078125 -7.140625 C 4.421875 -7.140625 3.894531 -6.9375 3.5 -6.53125 C 3.113281 -6.125 2.921875 -5.535156 2.921875 -4.765625 L 2.921875 0 L 1.15625 0 L 1.15625 -8.53125 L 2.921875 -8.53125 L 2.921875 -7.5625 C 3.210938 -7.90625 3.582031 -8.175781 4.03125 -8.375 C 4.476562 -8.570312 4.957031 -8.671875 5.46875 -8.671875 Z M 5.46875 -8.671875 "/></g></g></g><g fill="#000000" fill-opacity="1"><g transform="translate(61.537619, 19.959679)"><g><path d="M 4.453125 -1.578125 L 6.875 -8.53125 L 8.75 -8.53125 L 5.5 0 L 3.390625 0 L 0.15625 -8.53125 L 2.046875 -8.53125 Z M 4.453125 -1.578125 "/></g></g></g></svg>